<?xml version="1.0" encoding="utf-8"?>
<!-- Generator: Adobe Illustrator 15.0.0, SVG Export Plug-In . SVG Version: 6.00 Build 0)  -->
<!DOCTYPE svg PUBLIC "-//W3C//DTD SVG 1.1//EN" "http://www.w3.org/Graphics/SVG/1.1/DTD/svg11.dtd">
<svg version="1.1" id="Layer_1" xmlns="http://www.w3.org/2000/svg" xmlns:xlink="http://www.w3.org/1999/xlink" x="0px" y="0px"
	 width="200px" height="50px" viewBox="0 0 200 50" enable-background="new 0 0 200 50" xml:space="preserve">
<g>
	<g>
		<g>
			<path fill-rule="evenodd" clip-rule="evenodd" fill="#004494" d="M108.898,34.354c0,0-1.93-1.201-3.127-1.664
				c0,0-3.691-1.723-4.426-2.543c0,0-1.438-1.363-0.597-2.949c0,0,0.353-1.035,1.874-1.035c0,0,1.98,0.109,1.98,1.746v2.311h7.1
				l-0.012-3.402c0,0,0.545-5.572-8.363-5.816c0,0-7.005-0.464-9.016,3.332c0,0-0.788,0.846-0.788,3.794v2.131
				c0,0-0.08,2.457,1.168,4.041c0,0,0.706,1.039,2.445,2.184c0,0,3.529,1.912,5.647,3.006c0,0,2.139,1.229,1.857,3.182
				c0,0-0.174,2.004-2.24,1.922c0,0-1.888-0.086-1.888-2.051v-2.309H92.95v3.354c0,0-0.213,6.412,9.509,6.412
				c0,0,9.287,0.189,9.723-6.582v-2.729C112.182,40.688,112.508,36.54,108.898,34.354L108.898,34.354z"/>
		</g>
		<g>
			<polygon fill-rule="evenodd" clip-rule="evenodd" fill="#004494" points="72.551,21.799 70.174,36.78 69.617,36.78 
				67.346,21.933 55.486,21.933 54.894,49.062 61.915,49.062 61.999,28.62 62.551,28.62 66.273,49.06 73.66,49.06 77.337,28.628 
				77.826,28.628 77.995,49.062 85.054,49.062 84.295,21.799 72.551,21.799 			"/>
		</g>
		<g>
			<polygon fill-rule="evenodd" clip-rule="evenodd" fill="#004494" points="30.752,21.912 26.08,49.032 33.64,49.032 
				36.406,28.003 37.028,28.003 39.794,49.032 47.352,49.032 42.682,21.912 30.752,21.912 			"/>
		</g>
		<g>
			<path fill-rule="evenodd" clip-rule="evenodd" fill="#004494" d="M189.365,33.981v4h1.939v4.295c0,2.098-1.783,2.137-1.783,2.137
				c-2.172,0-2.09-1.994-2.09-1.994V27.565c0-1.531,1.926-1.613,1.926-1.613c1.85,0,1.863,1.826,1.863,1.826v2.258h7.115
				c0.232-4.408-0.641-5.475-0.641-5.475c-1.766-3.987-8.443-3.769-8.443-3.769c-10.266,0-9.127,7.919-9.127,7.919v14.361
				c0.221,7.428,10.332,6.674,10.504,6.664c4.5-0.502,5.859-1.936,5.859-1.936c1.25-0.934,1.572-2.229,1.572-2.229
				c0.357-0.754,0.447-3.154,0.447-3.154v-8.438H189.365L189.365,33.981z"/>
		</g>
		<g>
			<polygon fill-rule="evenodd" clip-rule="evenodd" fill="#004494" points="165.775,38.396 165.465,38.396 158.24,21.805 
				149.602,21.805 149.602,49.065 156.635,49.065 156.213,32.478 156.527,32.478 164.01,49.065 172.389,49.065 172.389,21.804 
				165.27,21.804 165.775,38.396 			"/>
		</g>
		<g>
			<path fill-rule="evenodd" clip-rule="evenodd" fill="#004494" d="M132.434,42.274c0,0,0.102,2.236-1.959,2.236
				c0,0-2.174,0.117-2.174-2.182l-0.021-20.507h-7.713v20.345c0,0-0.791,7.699,10.014,7.699c0,0,9.391,0.111,9.391-7.348V21.823
				h-7.537V42.274L132.434,42.274z"/>
		</g>
		<g>
			<path fill-rule="evenodd" clip-rule="evenodd" fill="#004494" d="M16.046,34.354c0,0-1.928-1.201-3.123-1.664
				c0,0-3.693-1.721-4.425-2.543c0,0-1.44-1.365-0.597-2.947c0,0,0.351-1.037,1.872-1.037c0,0,1.981,0.109,1.981,1.746v2.311h7.103
				l-0.014-3.404c0,0,0.542-5.57-8.364-5.814c0,0-0.669-0.043-1.655,0.006c0,0-5.395,0.291-7.323,3.268
				c-0.011,0.021-0.026,0.038-0.038,0.059c0,0-0.788,0.845-0.788,3.794v2.131c0,0-0.082,2.457,1.168,4.041
				c0,0,0.706,1.039,2.444,2.184c0,0,3.529,1.912,5.647,3.004c0,0,2.141,1.229,1.858,3.184c0,0-0.174,2.004-2.238,1.922
				c0,0-1.889-0.086-1.889-2.051v-2.311H0.101v3.355c0,0-0.212,6.412,9.51,6.412c0,0,9.287,0.189,9.723-6.582v-2.729
				C19.333,40.688,19.658,36.54,16.046,34.354L16.046,34.354z"/>
		</g>
	</g>
</g>
<g>
	<g>
		<path fill="#004494" d="M14.016,6.92c0,0.74-0.085,1.459-0.256,2.158c-0.17,0.699-0.467,1.329-0.891,1.891
			c-0.423,0.562-0.99,1.031-1.7,1.408s-1.597,0.606-2.662,0.688v0.411c0,0.233-0.117,0.349-0.35,0.349H7.275
			c-0.233,0-0.35-0.116-0.35-0.349v-0.411c-1.165-0.054-2.11-0.285-2.836-0.688c-0.726-0.404-1.291-0.9-1.695-1.49
			c-0.405-0.589-0.678-1.233-0.822-1.932C1.428,8.256,1.356,7.578,1.356,6.92c0-0.548,0.075-1.154,0.226-1.819
			c0.151-0.664,0.432-1.291,0.842-1.88C2.835,2.632,3.4,2.122,4.12,1.69c0.719-0.432,1.647-0.688,2.785-0.771V0.57
			c0-0.15,0.034-0.25,0.103-0.298C7.076,0.224,7.165,0.2,7.275,0.2h0.883c0.124,0,0.213,0.024,0.268,0.072
			C8.48,0.32,8.515,0.42,8.528,0.57v0.349c1.188,0.083,2.139,0.329,2.856,0.739c0.717,0.412,1.269,0.912,1.658,1.5
			c0.389,0.59,0.648,1.216,0.778,1.881C13.951,5.705,14.016,6.332,14.016,6.92z M6.925,2.276c-0.739,0.055-1.366,0.22-1.88,0.495
			S4.12,3.395,3.812,3.821C3.503,4.247,3.281,4.73,3.144,5.273C3.006,5.815,2.938,6.389,2.938,6.992c0,0.66,0.068,1.264,0.206,1.813
			c0.137,0.549,0.359,1.026,0.668,1.431c0.308,0.405,0.716,0.734,1.223,0.989c0.506,0.254,1.137,0.415,1.89,0.484V2.276z
			 M12.434,7.013c0-0.535-0.055-1.074-0.165-1.616c-0.11-0.542-0.312-1.037-0.606-1.483c-0.295-0.447-0.695-0.816-1.203-1.112
			C9.953,2.506,9.302,2.338,8.508,2.296v9.413c0.726-0.041,1.339-0.185,1.839-0.432c0.5-0.247,0.904-0.577,1.212-0.989
			c0.309-0.412,0.531-0.896,0.668-1.452C12.364,8.279,12.434,7.672,12.434,7.013z"/>
		<path fill="#004494" d="M16.498,4.249c0-0.164,0.031-0.277,0.093-0.339c0.062-0.062,0.167-0.092,0.319-0.092h0.678
			c0.164,0,0.28,0.03,0.349,0.092c0.069,0.062,0.104,0.175,0.104,0.339v6.885l2.198-2.959l3.125-4.048
			c0.068-0.083,0.137-0.155,0.205-0.217c0.068-0.062,0.185-0.092,0.349-0.092h0.514c0.288,0,0.432,0.13,0.432,0.391v9.207
			c0,0.274-0.151,0.411-0.453,0.411h-0.616c-0.315,0-0.473-0.137-0.473-0.411V6.18l-1.829,2.508l-3.658,4.829
			c-0.068,0.097-0.144,0.172-0.226,0.227c-0.082,0.055-0.199,0.082-0.349,0.082H16.91c-0.275,0-0.412-0.137-0.412-0.411V4.249z"/>
		<path fill="#004494" d="M36.019,8.729c0,0.85-0.062,1.603-0.185,2.261c-0.123,0.658-0.338,1.209-0.646,1.654
			c-0.307,0.446-0.717,0.785-1.229,1.018c-0.513,0.232-1.165,0.349-1.957,0.349c-0.382,0-0.813-0.042-1.292-0.124
			c-0.478-0.083-0.99-0.232-1.537-0.452l-0.02,0.021v3.597c0,0.137-0.025,0.236-0.073,0.298c-0.049,0.061-0.149,0.092-0.302,0.092
			h-0.854c-0.152,0-0.25-0.028-0.291-0.083c-0.042-0.054-0.063-0.157-0.063-0.308V4.167c0-0.232,0.118-0.349,0.355-0.349h0.853
			c0.236,0,0.354,0.117,0.354,0.349v0.74l0.062,0.041c0.151-0.095,0.352-0.219,0.604-0.37c0.253-0.15,0.537-0.294,0.85-0.431
			c0.315-0.137,0.646-0.256,0.995-0.36c0.348-0.103,0.693-0.154,1.035-0.154c0.642,0,1.178,0.113,1.608,0.339
			s0.772,0.555,1.024,0.987c0.253,0.431,0.434,0.963,0.543,1.592C35.963,7.181,36.019,7.907,36.019,8.729z M34.395,8.667
			c0-0.781-0.037-1.407-0.112-1.88c-0.076-0.473-0.191-0.839-0.349-1.1c-0.156-0.26-0.352-0.432-0.583-0.514
			c-0.232-0.082-0.505-0.124-0.819-0.124c-0.246,0-0.529,0.042-0.85,0.124c-0.321,0.082-0.638,0.185-0.952,0.308
			c-0.314,0.124-0.61,0.254-0.89,0.391c-0.28,0.137-0.509,0.253-0.686,0.349v5.918c0.573,0.165,1.099,0.281,1.576,0.35
			c0.478,0.069,0.935,0.103,1.372,0.103c0.437,0,0.801-0.065,1.094-0.195c0.293-0.13,0.53-0.349,0.707-0.658
			c0.177-0.308,0.303-0.712,0.379-1.212C34.357,10.027,34.395,9.407,34.395,8.667z"/>
		<path fill="#004494" d="M46.781,7.167l-1.192,2.261l-1.439,2.61c-0.124,0.192-0.288,0.288-0.494,0.288h-0.514
			c-0.15,0-0.26-0.02-0.329-0.062c-0.069-0.041-0.124-0.109-0.164-0.205l-1.356-2.466l-1.336-2.446h-0.062v6.268
			c0,0.274-0.151,0.411-0.452,0.411h-0.658c-0.287,0-0.431-0.137-0.431-0.411V4.208c0-0.26,0.136-0.391,0.411-0.391h0.678
			c0.15,0,0.264,0.023,0.339,0.072c0.075,0.047,0.14,0.126,0.195,0.236c0.356,0.616,0.702,1.236,1.038,1.859
			c0.335,0.623,0.674,1.251,1.017,1.88c0.233,0.425,0.465,0.859,0.699,1.305c0.233,0.446,0.465,0.881,0.699,1.306l1.479-2.754
			l1.973-3.576c0.055-0.096,0.127-0.175,0.216-0.237c0.089-0.062,0.202-0.092,0.339-0.092h0.575c0.261,0,0.391,0.13,0.391,0.391
			v9.207c0,0.274-0.145,0.411-0.432,0.411h-0.658c-0.302,0-0.452-0.137-0.452-0.411V7.167H46.781z"/>
		<path fill="#004494" d="M59.171,8.153c0.014,0.329-0.038,0.607-0.154,0.833c-0.116,0.227-0.367,0.339-0.75,0.339h-5.796
			c0.014,0.613,0.069,1.126,0.165,1.542c0.096,0.416,0.253,0.749,0.473,1.001c0.219,0.251,0.496,0.428,0.833,0.53
			c0.335,0.103,0.744,0.153,1.223,0.153c0.205,0,0.438-0.01,0.698-0.031c0.26-0.021,0.521-0.041,0.781-0.062
			c0.26-0.021,0.51-0.044,0.75-0.072c0.24-0.027,0.448-0.054,0.627-0.082c0.137-0.014,0.243-0.007,0.318,0.02
			c0.075,0.028,0.126,0.11,0.154,0.248l0.083,0.458c0.041,0.195-0.034,0.334-0.226,0.417c-0.192,0.083-0.426,0.16-0.699,0.229
			c-0.274,0.07-0.562,0.129-0.863,0.178c-0.301,0.048-0.603,0.086-0.904,0.114c-0.301,0.027-0.575,0.042-0.822,0.042
			c-0.946,0-1.696-0.147-2.25-0.442c-0.556-0.294-0.977-0.681-1.265-1.161c-0.287-0.479-0.476-1.031-0.565-1.654
			c-0.088-0.624-0.133-1.264-0.133-1.922c0-0.493,0.042-1.044,0.124-1.654c0.082-0.609,0.267-1.178,0.555-1.706
			c0.287-0.527,0.706-0.969,1.253-1.326s1.295-0.535,2.24-0.535c0.877,0,1.583,0.13,2.117,0.391c0.535,0.26,0.949,0.602,1.244,1.027
			c0.294,0.425,0.493,0.911,0.596,1.459C59.079,7.037,59.143,7.592,59.171,8.153z M57.507,8.03c0-0.355-0.031-0.716-0.093-1.079
			c-0.062-0.362-0.182-0.688-0.36-0.976s-0.432-0.521-0.76-0.699c-0.329-0.178-0.768-0.267-1.315-0.267
			c-0.452,0-0.833,0.072-1.141,0.216s-0.559,0.346-0.75,0.606c-0.192,0.26-0.336,0.576-0.432,0.946
			c-0.096,0.37-0.157,0.788-0.185,1.253H57.507z"/>
		<path fill="#004494" d="M69.271,13.826h-0.596c-0.329,0-0.493-0.137-0.493-0.411V9.202h-5.22v4.213
			c0,0.274-0.151,0.411-0.452,0.411h-0.637c-0.302,0-0.452-0.137-0.452-0.411V4.249c0-0.164,0.038-0.277,0.113-0.339
			c0.075-0.062,0.188-0.092,0.339-0.092h0.637c0.151,0,0.264,0.031,0.339,0.092c0.074,0.062,0.113,0.177,0.113,0.341v3.595h5.22
			V4.251c0-0.165,0.044-0.279,0.134-0.341c0.089-0.061,0.208-0.092,0.359-0.092h0.596c0.15,0,0.264,0.03,0.338,0.092
			c0.076,0.062,0.114,0.175,0.114,0.339v9.166C69.723,13.689,69.572,13.826,69.271,13.826z"/>
		<path fill="#004494" d="M80.292,13.826h-0.596c-0.329,0-0.493-0.137-0.493-0.411V9.202h-5.22v4.213
			c0,0.274-0.151,0.411-0.452,0.411h-0.637c-0.302,0-0.452-0.137-0.452-0.411V4.249c0-0.164,0.038-0.277,0.113-0.339
			c0.075-0.062,0.188-0.092,0.339-0.092h0.637c0.15,0,0.263,0.031,0.339,0.092c0.075,0.062,0.113,0.177,0.113,0.341v3.595h5.22
			V4.251c0-0.165,0.045-0.279,0.133-0.341c0.089-0.061,0.209-0.092,0.36-0.092h0.596c0.15,0,0.263,0.03,0.339,0.092
			c0.075,0.062,0.113,0.175,0.113,0.339v9.166C80.744,13.689,80.593,13.826,80.292,13.826z"/>
		<path fill="#004494" d="M91.272,10.753c0,0.495-0.092,0.935-0.277,1.32c-0.185,0.384-0.432,0.708-0.74,0.969
			c-0.308,0.261-0.665,0.457-1.069,0.587c-0.404,0.13-0.825,0.196-1.264,0.196h-3.946c-0.343,0-0.514-0.137-0.514-0.411V4.228
			c0-0.273,0.171-0.411,0.514-0.411h0.576c0.301,0,0.452,0.137,0.452,0.409v3.475h3.144c0.576,0,1.062,0.086,1.459,0.258
			c0.397,0.172,0.719,0.399,0.966,0.681c0.247,0.282,0.425,0.608,0.535,0.98C91.217,9.991,91.272,10.369,91.272,10.753z
			 M89.751,10.753c0-0.449-0.126-0.827-0.38-1.134c-0.253-0.306-0.682-0.458-1.285-0.458h-3.083v3.205h2.939
			c0.521,0,0.953-0.132,1.294-0.397C89.58,11.703,89.751,11.298,89.751,10.753z M94.005,13.415c0,0.274-0.152,0.411-0.458,0.411
			h-0.646c-0.318,0-0.478-0.137-0.478-0.411V4.249c0-0.164,0.041-0.277,0.125-0.339c0.083-0.062,0.202-0.092,0.354-0.092h0.646
			c0.153,0,0.268,0.03,0.343,0.092c0.077,0.062,0.115,0.175,0.115,0.339V13.415z"/>
		<path fill="#004494" d="M104.765,8.153c0.013,0.329-0.039,0.607-0.154,0.833c-0.116,0.227-0.367,0.339-0.75,0.339h-5.798
			c0.014,0.613,0.068,1.126,0.165,1.542c0.096,0.416,0.253,0.749,0.473,1.001c0.219,0.251,0.496,0.428,0.833,0.53
			c0.336,0.103,0.743,0.153,1.223,0.153c0.207,0,0.44-0.01,0.701-0.031c0.26-0.021,0.521-0.041,0.78-0.062
			c0.26-0.021,0.511-0.044,0.75-0.072c0.239-0.027,0.448-0.054,0.627-0.082c0.137-0.014,0.243-0.007,0.318,0.02
			c0.076,0.028,0.127,0.11,0.154,0.248l0.083,0.458c0.04,0.195-0.035,0.334-0.228,0.417c-0.191,0.083-0.423,0.16-0.698,0.229
			c-0.273,0.07-0.562,0.129-0.863,0.178c-0.301,0.048-0.604,0.086-0.904,0.114c-0.301,0.027-0.576,0.042-0.823,0.042
			c-0.946,0-1.696-0.147-2.25-0.442c-0.556-0.294-0.977-0.681-1.265-1.161c-0.287-0.479-0.476-1.031-0.565-1.654
			c-0.089-0.624-0.133-1.264-0.133-1.922c0-0.493,0.042-1.044,0.124-1.654c0.082-0.609,0.267-1.178,0.555-1.706
			c0.287-0.527,0.706-0.969,1.253-1.326s1.294-0.535,2.239-0.535c0.879,0,1.586,0.13,2.12,0.391c0.534,0.26,0.948,0.602,1.243,1.027
			c0.295,0.425,0.492,0.911,0.595,1.459C104.673,7.037,104.737,7.592,104.765,8.153z M103.101,8.03c0-0.355-0.031-0.716-0.093-1.079
			c-0.062-0.362-0.183-0.688-0.36-0.976s-0.432-0.521-0.761-0.699c-0.328-0.178-0.768-0.267-1.317-0.267
			c-0.452,0-0.832,0.072-1.14,0.216c-0.309,0.144-0.559,0.346-0.75,0.606c-0.192,0.26-0.336,0.576-0.432,0.946
			c-0.096,0.37-0.158,0.788-0.185,1.253H103.101z"/>
		<path fill="#004494" d="M120.651,7.167l-1.192,2.261l-1.439,2.61c-0.122,0.192-0.287,0.288-0.492,0.288h-0.514
			c-0.151,0-0.261-0.02-0.33-0.062c-0.067-0.041-0.123-0.109-0.164-0.205l-1.356-2.466l-1.336-2.446h-0.061v6.268
			c0,0.274-0.151,0.411-0.454,0.411h-0.657c-0.286,0-0.431-0.137-0.431-0.411V4.208c0-0.26,0.137-0.391,0.412-0.391h0.676
			c0.152,0,0.266,0.023,0.341,0.072c0.075,0.047,0.141,0.126,0.194,0.236c0.355,0.616,0.703,1.236,1.038,1.859
			c0.336,0.623,0.676,1.251,1.018,1.88c0.231,0.425,0.466,0.859,0.699,1.305c0.233,0.446,0.465,0.881,0.698,1.306l1.48-2.754
			l1.973-3.576c0.054-0.096,0.126-0.175,0.216-0.237c0.088-0.062,0.202-0.092,0.339-0.092h0.576c0.26,0,0.39,0.13,0.39,0.391v9.207
			c0,0.274-0.144,0.411-0.432,0.411h-0.657c-0.302,0-0.452-0.137-0.452-0.411V7.167H120.651z"/>
		<path fill="#004494" d="M131.175,12.716c-0.507,0.301-1.071,0.589-1.695,0.863c-0.623,0.274-1.346,0.411-2.167,0.411
			c-1.002,0-1.714-0.24-2.138-0.719c-0.426-0.479-0.638-1.185-0.638-2.117c0-1.164,0.295-2.031,0.883-2.6
			c0.591-0.568,1.569-0.853,2.939-0.853h2.836V7.002c0-0.753-0.174-1.274-0.523-1.562c-0.35-0.288-0.977-0.432-1.881-0.432
			c-0.191,0-0.408,0.003-0.647,0.01s-0.489,0.021-0.75,0.041c-0.26,0.021-0.521,0.042-0.78,0.062c-0.261,0.021-0.5,0.045-0.72,0.072
			c-0.233,0.042-0.371-0.02-0.41-0.185l-0.124-0.534c-0.028-0.096-0.018-0.178,0.03-0.247s0.147-0.137,0.298-0.205
			c0.206-0.068,0.453-0.13,0.74-0.185c0.288-0.055,0.59-0.099,0.904-0.134c0.315-0.034,0.627-0.059,0.936-0.072
			c0.308-0.013,0.587-0.021,0.832-0.021c0.822,0,1.478,0.09,1.967,0.268s0.862,0.425,1.119,0.74c0.257,0.315,0.42,0.699,0.489,1.151
			c0.068,0.452,0.104,0.953,0.104,1.5v4.542c0,0.206,0.011,0.364,0.03,0.473c0.021,0.11,0.055,0.192,0.103,0.247
			c0.05,0.054,0.121,0.092,0.216,0.113c0.098,0.021,0.228,0.038,0.392,0.052c0.231,0.013,0.35,0.103,0.35,0.267v0.514
			c0,0.096-0.028,0.174-0.082,0.236c-0.055,0.062-0.165,0.106-0.329,0.134c-0.247,0.041-0.486,0.062-0.72,0.062
			c-0.485,0-0.843-0.089-1.072-0.268c-0.23-0.178-0.378-0.486-0.448-0.924H131.175z M131.195,8.997h-3.021
			c-0.631,0-1.13,0.144-1.5,0.431s-0.556,0.842-0.556,1.665c0,0.575,0.114,0.966,0.34,1.171c0.226,0.206,0.64,0.309,1.243,0.309
			c0.259,0,0.544-0.034,0.854-0.103c0.308-0.068,0.619-0.161,0.935-0.277c0.315-0.116,0.62-0.244,0.915-0.38
			c0.293-0.136,0.557-0.273,0.79-0.411V8.997z"/>
		<path fill="#004494" d="M142.615,5.235h-5.178v8.179c0,0.151-0.031,0.257-0.094,0.319c-0.063,0.062-0.178,0.092-0.345,0.092
			h-0.646c-0.332,0-0.499-0.137-0.499-0.411V4.228c0-0.273,0.167-0.411,0.499-0.411h6.283c0.301,0,0.452,0.137,0.452,0.411v0.596
			C143.089,5.099,142.932,5.235,142.615,5.235z"/>
		<path fill="#004494" d="M151.168,12.716c-0.507,0.301-1.073,0.589-1.696,0.863c-0.623,0.274-1.346,0.411-2.168,0.411
			c-1,0-1.713-0.24-2.137-0.719c-0.426-0.479-0.637-1.185-0.637-2.117c0-1.164,0.294-2.031,0.883-2.6
			c0.589-0.568,1.569-0.853,2.938-0.853h2.836V7.002c0-0.753-0.175-1.274-0.522-1.562c-0.35-0.288-0.978-0.432-1.882-0.432
			c-0.192,0-0.407,0.003-0.647,0.01s-0.489,0.021-0.75,0.041c-0.26,0.021-0.521,0.042-0.78,0.062
			c-0.261,0.021-0.501,0.045-0.72,0.072c-0.233,0.042-0.37-0.02-0.411-0.185l-0.124-0.534c-0.027-0.096-0.018-0.178,0.032-0.247
			c0.048-0.069,0.146-0.137,0.297-0.205c0.206-0.068,0.453-0.13,0.74-0.185c0.289-0.055,0.589-0.099,0.904-0.134
			c0.314-0.034,0.627-0.059,0.937-0.072c0.307-0.013,0.585-0.021,0.831-0.021c0.823,0,1.478,0.09,1.967,0.268
			s0.861,0.425,1.118,0.74c0.258,0.315,0.421,0.699,0.489,1.151c0.069,0.452,0.105,0.953,0.105,1.5v4.542
			c0,0.206,0.009,0.364,0.029,0.473c0.021,0.11,0.056,0.192,0.104,0.247c0.048,0.054,0.12,0.092,0.215,0.113
			c0.097,0.021,0.228,0.038,0.392,0.052c0.232,0.013,0.349,0.103,0.349,0.267v0.514c0,0.096-0.027,0.174-0.081,0.236
			c-0.056,0.062-0.165,0.106-0.329,0.134c-0.247,0.041-0.486,0.062-0.72,0.062c-0.485,0-0.844-0.089-1.073-0.268
			c-0.229-0.178-0.377-0.486-0.447-0.924H151.168z M151.188,8.997h-3.021c-0.631,0-1.13,0.144-1.5,0.431s-0.556,0.842-0.556,1.665
			c0,0.575,0.113,0.966,0.34,1.171c0.226,0.206,0.64,0.309,1.243,0.309c0.26,0,0.545-0.034,0.853-0.103
			c0.309-0.068,0.62-0.161,0.935-0.277c0.316-0.116,0.621-0.244,0.916-0.38c0.294-0.136,0.558-0.273,0.79-0.411V8.997z"/>
		<path fill="#004494" d="M155.427,12.613c0.027-0.137,0.082-0.219,0.165-0.247c0.082-0.027,0.177-0.027,0.287,0
			c0.452,0.055,0.914,0.103,1.388,0.145c0.473,0.041,0.895,0.062,1.263,0.062c0.37,0,0.713-0.021,1.029-0.062
			c0.314-0.042,0.592-0.124,0.831-0.247c0.239-0.124,0.426-0.301,0.556-0.534c0.129-0.234,0.194-0.542,0.194-0.925
			c0-0.315-0.058-0.582-0.174-0.801c-0.117-0.219-0.271-0.394-0.464-0.524c-0.191-0.13-0.413-0.227-0.666-0.288
			c-0.254-0.062-0.519-0.093-0.792-0.093h-0.679c-0.123,0-0.208-0.017-0.256-0.052c-0.05-0.034-0.072-0.113-0.072-0.235V8.112
			c0-0.109,0.021-0.181,0.061-0.216c0.042-0.033,0.131-0.05,0.268-0.05h0.637c0.22,0,0.446-0.024,0.68-0.072
			c0.232-0.048,0.44-0.124,0.627-0.226c0.184-0.103,0.334-0.243,0.451-0.421c0.117-0.178,0.175-0.397,0.175-0.657
			c0-0.302-0.055-0.545-0.165-0.73c-0.109-0.185-0.257-0.333-0.441-0.442s-0.397-0.185-0.637-0.226s-0.49-0.062-0.75-0.062
			c-0.384,0-0.792,0.021-1.224,0.062s-0.866,0.075-1.305,0.103c-0.164,0.027-0.281,0.02-0.35-0.021
			c-0.068-0.042-0.116-0.124-0.144-0.247l-0.082-0.494c-0.014-0.109,0-0.188,0.041-0.236c0.041-0.047,0.104-0.092,0.185-0.133
			c0.179-0.082,0.397-0.153,0.658-0.215c0.26-0.062,0.531-0.11,0.812-0.144c0.281-0.034,0.555-0.058,0.822-0.072
			c0.267-0.013,0.504-0.02,0.709-0.02c0.425,0,0.846,0.034,1.264,0.103c0.418,0.069,0.795,0.203,1.13,0.4
			c0.336,0.199,0.606,0.473,0.812,0.823c0.205,0.349,0.308,0.805,0.308,1.366c0,0.439-0.13,0.853-0.39,1.244
			c-0.261,0.39-0.646,0.668-1.151,0.833V8.4c0.604,0.192,1.051,0.494,1.346,0.904c0.295,0.411,0.442,0.877,0.442,1.398
			c0,0.616-0.11,1.137-0.328,1.562c-0.219,0.425-0.515,0.764-0.884,1.018c-0.37,0.253-0.798,0.435-1.285,0.544
			c-0.486,0.11-0.997,0.165-1.531,0.165c-0.219,0-0.476-0.007-0.771-0.021c-0.295-0.014-0.596-0.041-0.904-0.082
			c-0.309-0.041-0.604-0.095-0.883-0.164c-0.281-0.068-0.511-0.158-0.688-0.268c-0.179-0.095-0.247-0.239-0.206-0.431
			L155.427,12.613z"/>
		<path fill="#004494" d="M165.209,4.249c0-0.164,0.032-0.277,0.093-0.339c0.062-0.062,0.167-0.092,0.319-0.092h0.677
			c0.165,0,0.281,0.03,0.351,0.092c0.068,0.062,0.103,0.175,0.103,0.339v6.885l2.199-2.959l3.122-4.048
			c0.069-0.083,0.137-0.155,0.206-0.217c0.069-0.062,0.186-0.092,0.351-0.092h0.513c0.289,0,0.432,0.13,0.432,0.391v9.207
			c0,0.274-0.15,0.411-0.452,0.411h-0.617c-0.313,0-0.471-0.137-0.471-0.411V6.18l-1.83,2.508l-3.658,4.829
			c-0.069,0.097-0.144,0.172-0.226,0.227c-0.083,0.055-0.199,0.082-0.35,0.082h-0.349c-0.275,0-0.412-0.137-0.412-0.411V4.249z"/>
		<path fill="#004494" d="M184.134,13.826h-0.597c-0.328,0-0.493-0.137-0.493-0.411V9.202h-5.22v4.213
			c0,0.274-0.15,0.411-0.453,0.411h-0.636c-0.302,0-0.452-0.137-0.452-0.411V4.249c0-0.164,0.036-0.277,0.112-0.339
			c0.075-0.062,0.188-0.092,0.34-0.092h0.636c0.152,0,0.265,0.031,0.341,0.092c0.074,0.062,0.112,0.177,0.112,0.341v3.595h5.22
			V4.251c0-0.165,0.045-0.279,0.134-0.341c0.089-0.061,0.208-0.092,0.359-0.092h0.597c0.15,0,0.264,0.03,0.339,0.092
			c0.074,0.062,0.112,0.175,0.112,0.339v9.166C184.585,13.689,184.435,13.826,184.134,13.826z"/>
		<path fill="#004494" d="M195.114,10.753c0,0.495-0.093,0.935-0.277,1.32c-0.186,0.384-0.431,0.708-0.74,0.969
			c-0.308,0.261-0.665,0.457-1.068,0.587s-0.825,0.196-1.265,0.196h-3.944c-0.343,0-0.515-0.137-0.515-0.411V4.228
			c0-0.273,0.172-0.411,0.515-0.411h0.574c0.302,0,0.453,0.137,0.453,0.409v3.475h3.145c0.574,0,1.061,0.086,1.458,0.258
			c0.398,0.172,0.72,0.399,0.967,0.681c0.247,0.282,0.423,0.608,0.534,0.98C195.06,9.991,195.114,10.369,195.114,10.753z
			 M193.594,10.753c0-0.449-0.126-0.827-0.38-1.134c-0.255-0.306-0.683-0.458-1.284-0.458h-3.083v3.205h2.938
			c0.521,0,0.952-0.132,1.295-0.397C193.422,11.703,193.594,11.298,193.594,10.753z M197.848,13.415
			c0,0.274-0.153,0.411-0.457,0.411h-0.646c-0.319,0-0.479-0.137-0.479-0.411V4.249c0-0.164,0.042-0.277,0.124-0.339
			c0.084-0.062,0.201-0.092,0.354-0.092h0.646c0.152,0,0.266,0.03,0.343,0.092c0.076,0.062,0.114,0.175,0.114,0.339V13.415z"/>
	</g>
</g>
</svg>
